<svg width="272" height="394" viewBox="0 0 272 394" fill="none" xmlns="http://www.w3.org/2000/svg">
<g filter="url(#filter0_i_97_12)">
<path d="M-146.541 257.843C-159.727 318.608 -121.632 380.164 -60.3915 391.156C21.8323 406.013 40.0739 348.412 64.5459 348.899C89.018 349.386 103.189 398.4 173.073 389.676C196.502 384.515 217.395 371.339 232.15 352.422C277.943 292.76 226.328 263.873 232.032 240.763C237.736 217.653 284.265 212.819 268.823 158.016C264.411 142.358 253.151 125.444 229.029 116.994C217.03 113.012 208.671 101.78 208.657 89.1437C209.378 68.8514 202.779 48.9761 190.064 33.1448C177.349 17.3136 159.366 6.58183 139.396 2.90791C90.7912 -8.09857 13.9537 22.0861 30.5209 102.4C35.1169 125.678 18.0848 127.954 5.27218 141.483C-7.54042 155.011 1.97294 168.33 -30.2329 169.611C-84.2494 171.901 -134.736 203.44 -146.541 257.843Z" fill="white" fill-opacity="0.2"/>
</g>
<defs>
<filter id="filter0_i_97_12" x="-149.147" y="-6.87698" width="428.694" height="400.483" filterUnits="userSpaceOnUse" color-interpolation-filters="sRGB">
<feFlood flood-opacity="0" result="BackgroundImageFix"/>
<feBlend mode="normal" in="SourceGraphic" in2="BackgroundImageFix" result="shape"/>
<feColorMatrix in="SourceAlpha" type="matrix" values="0 0 0 0 0 0 0 0 0 0 0 0 0 0 0 0 0 0 127 0" result="hardAlpha"/>
<feOffset dx="8" dy="-11"/>
<feGaussianBlur stdDeviation="3.8"/>
<feComposite in2="hardAlpha" operator="arithmetic" k2="-1" k3="1"/>
<feColorMatrix type="matrix" values="0 0 0 0 0.905882 0 0 0 0 0.713726 0 0 0 0 0.839216 0 0 0 0.5 0"/>
<feBlend mode="normal" in2="shape" result="effect1_innerShadow_97_12"/>
</filter>
</defs>
</svg>
