<svg width="265" height="336" viewBox="0 0 265 336" fill="none" xmlns="http://www.w3.org/2000/svg">
<g filter="url(#filter0_i_142_6)">
<path d="M262.708 199.506C255.478 225.61 240.324 245.327 217.245 258.657C194.166 271.986 171.365 278.651 148.842 278.651C126.319 278.651 103.519 290.176 80.4396 313.225C57.3606 336.274 32.7523 341.828 6.61471 329.887C-19.5229 317.946 -37.5968 298.785 -47.6069 272.403C-57.6171 246.021 -69.1566 220.75 -82.2254 196.59C-95.2942 172.43 -89.4549 151.047 -64.7076 132.441C-39.9603 113.835 -25.7792 91.8966 -22.1645 66.6258C-18.5497 41.3549 -4.22962 28.7194 20.7958 28.7194C45.8211 28.7194 69.8733 22.0546 92.9522 8.72489C116.031 -4.6048 137.025 -2.66089 155.933 14.5566C174.841 31.7742 185.685 52.0464 188.466 75.3734C191.246 98.7003 206.123 118.695 233.094 135.357C260.066 152.019 269.937 173.402 262.708 199.506Z" fill="white" fill-opacity="0.2"/>
</g>
<defs>
<filter id="filter0_i_142_6" x="-89" y="-7.6" width="361.6" height="343.6" filterUnits="userSpaceOnUse" color-interpolation-filters="sRGB">
<feFlood flood-opacity="0" result="BackgroundImageFix"/>
<feBlend mode="normal" in="SourceGraphic" in2="BackgroundImageFix" result="shape"/>
<feColorMatrix in="SourceAlpha" type="matrix" values="0 0 0 0 0 0 0 0 0 0 0 0 0 0 0 0 0 0 127 0" result="hardAlpha"/>
<feOffset dx="8" dy="-17"/>
<feGaussianBlur stdDeviation="3.8"/>
<feComposite in2="hardAlpha" operator="arithmetic" k2="-1" k3="1"/>
<feColorMatrix type="matrix" values="0 0 0 0 0.905882 0 0 0 0 0.713726 0 0 0 0 0.839216 0 0 0 0.25 0"/>
<feBlend mode="normal" in2="shape" result="effect1_innerShadow_142_6"/>
</filter>
</defs>
</svg>
