<svg width="119" height="119" viewBox="0 0 119 119" fill="none" xmlns="http://www.w3.org/2000/svg">
<path d="M89.6557 60.69C84.6252 50.575 68.4791 12.2245 63.3134 7.41046C62.9348 7.05887 62.5291 6.68023 62.0423 6.46387C60.5818 5.81478 59.2566 6.19341 58.337 7.19409C55.4432 10.3314 47.0861 27.2348 42.218 37.2686C40.1625 41.3255 36.4843 48.5196 29.4525 59.9868C28.3166 61.853 28.6411 63.4216 29.5066 64.6386C39.0536 78.0532 43.2727 84.9768 53.8205 103.611C56.3086 107.993 57.8502 111.049 58.5534 111.887C59.1214 112.563 60.5548 112.861 60.663 112.861C61.6095 112.807 62.448 112.212 62.9348 111.211C66.3425 104.125 84.6523 73.158 90.0614 63.043C90.5482 62.1505 89.9802 61.312 89.6557 60.69ZM60.3114 105.558C57.6339 100.717 54.8482 95.9302 51.9273 91.2243C44.8684 79.8382 40.1625 71.4 33.5905 62.3398C36.7007 57.4986 43.2727 46.3289 46.978 38.8643C50.2505 32.3193 57.4445 17.3091 60.8252 11.6566C66.4777 19.8784 80.7848 53.9016 84.9498 62.2857C80.1086 70.1018 66.1261 93.388 60.3114 105.558Z" fill="white"/>
</svg>
