<svg width="71" height="74" viewBox="0 0 71 74" fill="none" xmlns="http://www.w3.org/2000/svg">
<path d="M53.4921 37.74C50.4907 31.45 40.8573 7.60181 37.7753 4.60818C37.5494 4.38954 37.3073 4.15409 37.0169 4.01954C36.1455 3.61591 35.3548 3.85136 34.8062 4.47363C33.0796 6.42454 28.0935 16.9359 25.1889 23.1755C23.9626 25.6982 21.768 30.1718 17.5726 37.3027C16.8948 38.4632 17.0885 39.4386 17.6048 40.1955C23.301 48.5373 25.8182 52.8427 32.1114 64.4305C33.596 67.155 34.5157 69.0555 34.9353 69.5768C35.2742 69.9973 36.1294 70.1823 36.1939 70.1823C36.7587 70.1486 37.2589 69.7786 37.5494 69.1564C39.5826 64.75 50.5069 45.4932 53.7342 39.2032C54.0246 38.6482 53.6857 38.1268 53.4921 37.74ZM35.9842 65.6414C34.3867 62.6309 32.7246 59.6541 30.9819 56.7277C26.7703 49.6473 23.9626 44.4 20.0414 38.7659C21.8971 35.7555 25.8182 28.8095 28.0289 24.1677C29.9814 20.0977 34.2737 10.7636 36.2907 7.24863C39.6632 12.3614 48.1994 33.5186 50.6844 38.7323C47.796 43.5927 39.4535 58.0732 35.9842 65.6414Z" fill="white"/>
</svg>
