<svg width="43" height="42" viewBox="0 0 43 42" fill="none" xmlns="http://www.w3.org/2000/svg">
<path d="M41.7379 19.1297L23.4048 0.791888C22.8972 0.284826 22.2092 0 21.4918 0C20.7743 0 20.0863 0.284826 19.5788 0.791888L15.7668 4.60101L20.5969 9.4311C23.1338 8.57421 25.5357 11.0033 24.6648 13.5262L29.3205 18.1819C32.5296 17.0756 35.0562 21.0882 32.6459 23.4966C30.1624 25.9801 26.0636 23.2276 27.3958 19.996L23.0504 15.6562V27.0798C25.4223 28.2555 25.1373 31.0033 23.9016 32.2362C23.2979 32.8395 22.4793 33.1785 21.6258 33.1785C20.7723 33.1785 19.9537 32.8395 19.35 32.2362C17.7028 30.5861 18.3122 27.8383 20.4047 26.9861V15.4546C18.4547 14.6568 18.0984 12.5727 18.6572 11.2358L13.8955 6.46855L1.32157 19.0444C0.814281 19.5518 0.529297 20.2399 0.529297 20.9574C0.529297 21.6749 0.814281 22.363 1.32157 22.8704L19.6603 41.2082C20.1677 41.7152 20.8556 42 21.5729 42C22.2901 42 22.978 41.7152 23.4854 41.2082L41.7379 22.9557C42.2452 22.4483 42.5302 21.7602 42.5302 21.0427C42.5302 20.3252 42.2452 19.6371 41.7379 19.1297Z" fill="white"/>
</svg>
