<svg width="37" height="35" viewBox="0 0 37 35" fill="none" xmlns="http://www.w3.org/2000/svg">
<path d="M12.1749 28.1819C12.1749 28.3267 12.0061 28.4425 11.7933 28.4425C11.5511 28.4642 11.3823 28.3484 11.3823 28.1819C11.3823 28.0372 11.5511 27.9214 11.764 27.9214C11.9841 27.8997 12.1749 28.0155 12.1749 28.1819ZM9.89258 27.8563C9.84121 28.001 9.98798 28.1675 10.2081 28.2109C10.399 28.2833 10.6191 28.2109 10.6631 28.0662C10.7072 27.9214 10.5677 27.7549 10.3476 27.6898C10.1568 27.6392 9.94395 27.7115 9.89258 27.8563ZM13.1363 27.7332C12.9235 27.7839 12.7767 27.9214 12.7987 28.0879C12.8207 28.2326 13.0115 28.3267 13.2317 28.276C13.4445 28.2254 13.5913 28.0879 13.5693 27.9431C13.5473 27.8056 13.3491 27.7115 13.1363 27.7332ZM17.9652 0C7.78637 0 0 7.62085 0 17.659C0 25.6851 5.12242 32.5533 12.4391 34.9705C13.3785 35.137 13.7087 34.5652 13.7087 34.0948C13.7087 33.6461 13.6867 31.1709 13.6867 29.6511C13.6867 29.6511 8.5496 30.7367 7.47081 27.4944C7.47081 27.4944 6.63419 25.3884 5.43064 24.8456C5.43064 24.8456 3.75008 23.7093 5.54806 23.731C5.54806 23.731 7.3754 23.8758 8.38081 25.5982C9.98798 28.3918 12.6813 27.5885 13.7307 27.1108C13.8995 25.9529 14.3765 25.1495 14.9049 24.6719C10.8026 24.2232 6.66355 23.6369 6.66355 16.6747C6.66355 14.6844 7.22129 13.6857 8.39548 12.4119C8.20468 11.9415 7.58089 10.0019 8.58629 7.49782C10.1201 7.02739 13.65 9.45188 13.65 9.45188C15.1177 9.04659 16.6956 8.83671 18.2587 8.83671C19.8219 8.83671 21.3997 9.04659 22.8674 9.45188C22.8674 9.45188 26.3973 7.02016 27.9311 7.49782C28.9365 10.0092 28.3127 11.9415 28.1219 12.4119C29.2961 13.6929 30.0153 14.6917 30.0153 16.6747C30.0153 23.6587 25.6928 24.2159 21.5905 24.6719C22.2656 25.2436 22.8381 26.3292 22.8381 28.03C22.8381 30.4689 22.816 33.4869 22.816 34.0803C22.816 34.5507 23.1536 35.1225 24.0856 34.956C31.4244 32.5533 36.4 25.6851 36.4 17.659C36.4 7.62085 28.1439 0 17.9652 0ZM7.13322 24.9614C7.03782 25.0337 7.05984 25.2002 7.1846 25.3377C7.30202 25.4535 7.47081 25.5042 7.56621 25.4101C7.66161 25.3377 7.6396 25.1712 7.51484 25.0337C7.39742 24.9179 7.22863 24.8673 7.13322 24.9614ZM6.34064 24.3751C6.28927 24.4692 6.36266 24.585 6.50943 24.6574C6.62685 24.7298 6.77363 24.7081 6.825 24.6067C6.87637 24.5126 6.80298 24.3969 6.65621 24.3245C6.50943 24.2811 6.39202 24.3028 6.34064 24.3751ZM8.71839 26.9516C8.60097 27.0457 8.645 27.2628 8.81379 27.4003C8.98258 27.5668 9.1954 27.5885 9.29081 27.4727C9.38621 27.3786 9.34218 27.1615 9.1954 27.024C9.03395 26.8575 8.81379 26.8358 8.71839 26.9516ZM7.88177 25.8877C7.76435 25.9601 7.76435 26.1483 7.88177 26.3147C7.99919 26.4812 8.19734 26.5536 8.29274 26.4812C8.41016 26.3871 8.41016 26.1989 8.29274 26.0325C8.19 25.866 7.99919 25.7936 7.88177 25.8877Z" fill="white"/>
</svg>
