<svg width="44" height="43" viewBox="0 0 44 43" fill="none" xmlns="http://www.w3.org/2000/svg">
<path d="M0.0258789 0V43H43.0259V0H0.0258789ZM23.4263 33.5362C23.4263 37.721 20.9692 39.631 17.389 39.631C14.1544 39.631 12.2828 37.9609 11.323 35.9357L14.6152 33.9489C15.2486 35.0719 15.8245 36.0221 17.2163 36.0221C18.5408 36.0221 19.3855 35.5038 19.3855 33.4786V19.7435H23.4263V33.5362ZM32.9861 39.631C29.2332 39.631 26.8049 37.8458 25.6243 35.5038L28.9165 33.6033C29.7803 35.0143 30.9129 36.0605 32.8998 36.0605C34.5699 36.0605 35.6449 35.2254 35.6449 34.0641C35.6449 32.6819 34.5507 32.1924 32.6982 31.3766L31.6904 30.9446C28.7725 29.7065 26.8433 28.142 26.8433 24.8498C26.8433 21.8167 29.1565 19.5132 32.7558 19.5132C35.3281 19.5132 37.171 20.4058 38.4955 22.7478L35.3473 24.7634C34.6562 23.5252 33.9076 23.0357 32.7462 23.0357C31.5656 23.0357 30.8169 23.7844 30.8169 24.7634C30.8169 25.9728 31.5656 26.4623 33.3029 27.2205L34.3107 27.6525C37.7469 29.121 39.6761 30.6279 39.6761 34.0065C39.6761 37.6346 36.8158 39.631 32.9861 39.631Z" fill="white"/>
</svg>
