<svg width="27" height="52" viewBox="0 0 27 52" fill="none" xmlns="http://www.w3.org/2000/svg">
<path d="M7.38018 51.7596C6.40022 50.9401 7.38018 49.5389 7.48333 48.4946C9.89455 38.7923 10.6424 35.6199 13.7499 26.3405C10.3845 26.3669 4.8916 25.9968 3.04773 26.0365C1.20386 26.0761 -0.652904 25.7589 0.223901 23.8686C2.95747 17.6295 6.02629 11.8398 9.39167 5.98403C10.3974 4.18632 11.2871 2.3093 12.3573 0.551241C12.8086 -0.188993 14.1109 -0.307959 14.6525 0.974232C15.1941 2.24321 14.4849 4.95299 14.4978 6.23518C14.0594 9.63233 12.4863 13.9812 11.9318 17.3519C15.5035 17.722 19.0881 17.4577 22.6985 17.6692C24.1555 17.7749 26.4894 17.3519 26.9278 18.5945C27.3791 19.837 25.5997 21.9519 24.8002 23.2474C22.3632 26.7635 20.2486 30.3721 18.0437 34.0601C14.8072 39.4136 12.3831 44.6481 9.66245 50.3452C9.31431 51.297 8.47618 52.5263 7.38018 51.7596ZM14.6267 24.2387C17.0508 24.1198 16.1869 26.3934 15.6454 27.8474C14.0981 32.5003 12.9892 36.0164 11.7771 40.7618C15.3617 33.3991 19.6554 26.3537 24.336 19.7048C20.9964 19.6652 15.5551 19.6387 12.5894 19.5726C9.62377 19.5065 8.70828 19.8106 9.88165 16.0036C10.7069 12.699 11.9705 8.0329 12.4476 4.64897C9.03063 11.0599 5.57499 16.9289 2.80274 23.6703C7.05782 23.4456 10.5393 24.1859 14.6267 24.2387Z" fill="white"/>
</svg>
