<svg width="34" height="25" viewBox="0 0 34 25" fill="none" xmlns="http://www.w3.org/2000/svg">
<path d="M32.7018 8.25521C32.9557 8.05339 33.3333 8.24219 33.3333 8.5612V21.875C33.3333 23.6003 31.9336 25 30.2083 25H3.125C1.39974 25 0 23.6003 0 21.875V8.56771C0 8.24219 0.371094 8.0599 0.63151 8.26172C2.08984 9.39453 4.02344 10.8333 10.6641 15.6576C12.0378 16.6602 14.3555 18.7695 16.6667 18.7565C18.9909 18.776 21.3542 16.6211 22.6758 15.6576C29.3164 10.8333 31.2435 9.38802 32.7018 8.25521ZM16.6667 16.6667C18.1771 16.6927 20.3516 14.7656 21.4453 13.9714C30.0846 7.70182 30.7422 7.15495 32.7344 5.59245C33.112 5.29948 33.3333 4.84375 33.3333 4.36198V3.125C33.3333 1.39974 31.9336 0 30.2083 0H3.125C1.39974 0 0 1.39974 0 3.125V4.36198C0 4.84375 0.221354 5.29297 0.598958 5.59245C2.59115 7.14844 3.2487 7.70182 11.888 13.9714C12.9818 14.7656 15.1563 16.6927 16.6667 16.6667Z" fill="white"/>
</svg>
