<svg width="119" height="39" viewBox="0 0 119 39" fill="none" xmlns="http://www.w3.org/2000/svg">
<rect x="1" y="1" width="5.67742" height="36.3871" rx="2.83871" stroke="white" stroke-width="2"/>
<rect x="18.2742" y="16.3548" width="5.67742" height="21.0323" rx="2.83871" stroke="white" stroke-width="2"/>
<path d="M50.9031 34.5484C50.9031 32.9806 52.174 31.7097 53.7418 31.7097C55.3096 31.7097 56.5805 32.9806 56.5805 34.5484C56.5805 36.1162 55.3096 37.3871 53.7418 37.3871C52.174 37.3871 50.9031 36.1162 50.9031 34.5484Z" stroke="white" stroke-width="2"/>
<path d="M112.323 34.5484C112.323 32.9806 113.593 31.7097 115.161 31.7097C116.729 31.7097 118 32.9806 118 34.5484C118 36.1162 116.729 37.3871 115.161 37.3871C113.593 37.3871 112.323 36.1162 112.323 34.5484Z" stroke="white" stroke-width="2"/>
<path d="M81.613 19.1935C81.613 17.6258 82.884 16.3548 84.4517 16.3548C86.0195 16.3548 87.2905 17.6258 87.2905 19.1935V23.0323C87.2905 24.6 86.0195 25.871 84.4517 25.871C82.884 25.871 81.613 24.6 81.613 23.0322V19.1935Z" stroke="white" stroke-width="2"/>
<path d="M35.5483 3.83871C35.5483 2.27093 36.8193 1 38.387 1C39.9548 1 41.2258 2.27093 41.2258 3.83871V34.5484C41.2258 36.1162 39.9548 37.3871 38.387 37.3871C36.8193 37.3871 35.5483 36.1162 35.5483 34.5484V3.83871Z" stroke="white" stroke-width="2"/>
<path d="M96.9678 3.83871C96.9678 2.27093 98.2387 1 99.8065 1C101.374 1 102.645 2.27093 102.645 3.83871V34.5484C102.645 36.1162 101.374 37.3871 99.8065 37.3871C98.2387 37.3871 96.9678 36.1162 96.9678 34.5484V3.83871Z" stroke="white" stroke-width="2"/>
<rect x="66.2581" y="1" width="5.67742" height="36.3871" rx="2.83871" stroke="white" stroke-width="2"/>
</svg>
