<svg width="38" height="42" viewBox="0 0 38 42" fill="none" xmlns="http://www.w3.org/2000/svg">
<path d="M18.6102 42C18.0518 42 17.4851 41.85 16.9934 41.5666L11.8512 38.5247C11.0844 38.0913 11.4595 37.9413 11.7095 37.8579C12.7346 37.4996 12.943 37.4245 14.0347 36.7995C14.1514 36.7328 14.3014 36.7578 14.4181 36.8328L18.3685 39.1747C18.5102 39.2581 18.7102 39.2581 18.8435 39.1747L34.2367 30.2905C34.3784 30.2072 34.4701 30.0405 34.4701 29.8738V12.1054C34.4701 11.9303 34.3784 11.772 34.2284 11.6803L18.8435 2.80444C18.7019 2.7211 18.5102 2.7211 18.3685 2.80444L2.99196 11.6887C2.84195 11.772 2.75027 11.9387 2.75027 12.1137V29.8738C2.75027 30.0405 2.84195 30.2072 2.99196 30.2822L7.20905 32.7157C9.50094 33.8575 10.9011 32.5157 10.9011 31.1573V13.6222C10.9011 13.3722 11.1011 13.1805 11.3511 13.1805H13.3013C13.543 13.1805 13.7514 13.3722 13.7514 13.6222V31.1656C13.7514 34.2159 12.0845 35.9661 9.19258 35.9661C8.30082 35.9661 7.60075 35.9661 5.65056 34.9993L1.61683 32.6741C0.616728 32.099 0 31.0239 0 29.8655V12.1054C0 10.9553 0.616728 9.87181 1.61683 9.29675L16.9934 0.412541C17.9685 -0.137514 19.2602 -0.137514 20.227 0.412541L35.6202 9.30509C36.6203 9.88015 37.237 10.9553 37.237 12.1137V29.8738C37.237 31.0239 36.6203 32.099 35.6202 32.6824L20.227 41.5666C19.7353 41.85 19.1769 42 18.6102 42ZM31.0364 24.4899C31.0364 21.1646 28.7862 20.2812 24.0607 19.6561C19.2769 19.0227 18.7935 18.6977 18.7935 17.5809C18.7935 16.6558 19.2019 15.4224 22.7439 15.4224C25.9026 15.4224 27.0694 16.1058 27.5527 18.2393C27.5944 18.4393 27.7778 18.5893 27.9861 18.5893H29.9863C30.1113 18.5893 30.228 18.5393 30.3113 18.4477C30.3947 18.356 30.4364 18.231 30.428 18.106C30.1197 14.4306 27.6777 12.7221 22.7439 12.7221C18.3518 12.7221 15.7349 14.5723 15.7349 17.6809C15.7349 21.0479 18.3435 21.9813 22.5522 22.3981C27.5944 22.8898 27.9861 23.6315 27.9861 24.6233C27.9861 26.3401 26.6026 27.0735 23.3607 27.0735C19.2852 27.0735 18.3935 26.0484 18.0935 24.0232C18.0601 23.8065 17.8768 23.6482 17.6518 23.6482H15.6599C15.4099 23.6482 15.2182 23.8482 15.2182 24.0899C15.2182 26.6818 16.6267 29.7738 23.369 29.7738C28.2361 29.7655 31.0364 27.8403 31.0364 24.4899Z" fill="white"/>
</svg>
