<svg width="43" height="23" viewBox="0 0 43 23" fill="none" xmlns="http://www.w3.org/2000/svg">
<path d="M21.1763 1.88863C32.4244 1.88863 41.0738 6.62676 41.0738 11.8308C41.0738 17.0349 32.4178 21.773 21.1763 21.773C9.92814 21.773 1.27877 17.0349 1.27877 11.8308C1.27877 6.62676 9.93471 1.88863 21.1763 1.88863ZM21.1763 0.786133C9.58033 0.786133 0.17627 5.7277 0.17627 11.8308C0.17627 17.9339 9.58033 22.8755 21.1763 22.8755C32.7722 22.8755 42.1763 17.9339 42.1763 11.8308C42.1763 5.7277 32.7722 0.786133 21.1763 0.786133ZM14.4956 10.9449C13.9772 13.6027 12.1463 13.3271 9.89533 13.3271L10.7944 8.69395C13.2881 8.69395 14.9813 8.42488 14.4956 10.9449ZM6.56814 18.0193H8.97658L9.54752 15.0793C12.2447 15.0793 13.9181 15.2761 15.4669 13.8258C17.1797 12.2508 17.626 9.44863 16.4053 8.04426C15.7688 7.30926 14.745 6.94832 13.3538 6.94832H8.71408L6.56814 18.0193ZM18.7547 4.00176H21.15L20.5791 6.94176C22.6463 6.94176 24.5625 6.79082 25.4878 7.64395C26.4591 8.53645 25.9931 9.67832 24.9431 15.0661H22.515C23.5256 9.85551 23.716 9.42238 23.3485 9.02863C22.9941 8.64801 22.1869 8.72676 20.2378 8.72676L19.0041 15.0661H16.6088L18.7547 4.00176ZM33.3169 10.9449C32.7919 13.6421 30.9085 13.3271 28.7166 13.3271L29.6156 8.69395C32.1225 8.69395 33.8025 8.42488 33.3169 10.9449ZM25.3894 18.0193H27.8044L28.3753 15.0793C31.2103 15.0793 32.7788 15.2433 34.2947 13.8258C36.0075 12.2508 36.4538 9.44863 35.2331 8.04426C34.5966 7.30926 33.5728 6.94832 32.1816 6.94832H27.5419L25.3894 18.0193Z" fill="white"/>
</svg>
