<svg width="45" height="41" viewBox="0 0 45 41" fill="none" xmlns="http://www.w3.org/2000/svg">
<path d="M20.0766 17.4343C20.6032 17.9215 21.5483 17.8132 21.8588 17.15C22.1423 16.2433 20.7787 14.4839 20.4816 13.4553C18.8075 9.77403 17.0928 6.10633 15.3241 2.46569C14.784 1.22056 12.6103 1.9108 13.1909 3.26419C15.5806 7.93341 17.5788 12.8462 20.0766 17.4343ZM29.6896 28.3562C28.7445 27.0704 26.8543 28.3426 27.8669 29.696C29.2171 33.1743 30.3107 36.7337 31.6068 40.239C32.0254 41.5247 34.2531 41.0781 33.8075 39.6706C31.5663 33.4179 30.4862 29.8855 29.6896 28.3562ZM21.1702 26.4208C20.3061 26.8945 20.1441 28.1126 19.6176 28.8975C17.9029 32.3352 16.0802 35.7051 14.271 39.0886C13.9875 39.6164 14.217 40.239 14.73 40.5232C15.2161 40.7939 15.9587 40.7262 16.2422 40.1849C19.2125 34.6495 20.8732 31.3472 22.3313 28.2885C23.1279 27.3953 22.3718 26.0419 21.1702 26.4208ZM28.5555 16.9335C30.8237 11.7094 32.9029 8.01462 36.3323 1.58598C36.9939 0.394992 35.0362 -0.647123 34.3746 0.48973C31.6743 5.64617 28.8795 10.7755 26.7193 16.1756C26.2467 17.2719 28.1099 18.0298 28.5555 16.9335ZM17.9569 21.1426C15.3106 20.5606 12.5563 20.6012 9.85603 20.3847C6.98023 20.2087 4.09093 20.0598 1.21513 19.8027C0.634566 19.7486 0.0405042 20.1411 0 20.7636C0.108011 22.6719 3.49687 21.9005 4.83351 22.2253C8.97844 22.523 13.1639 22.5095 17.2953 23.0103C18.6184 23.4704 19.2665 21.5757 17.9569 21.1426ZM43.8391 20.6824C40.5177 20.7907 37.1964 20.9125 33.8885 21.1426C33.0785 21.2779 32.1604 21.0749 31.4313 21.4809C30.8777 21.9005 31.0667 22.7666 31.6608 23.0509C35.7382 23.2945 39.9237 22.7396 44.0281 22.7531C45.4998 22.7125 45.1892 20.5877 43.8391 20.6824Z" fill="white"/>
</svg>
