<svg width="48" height="42" viewBox="0 0 48 42" fill="none" xmlns="http://www.w3.org/2000/svg">
<path d="M39.2063 13.6113C38.7 13.4426 38.1938 13.2832 37.6875 13.1332C37.7719 12.7863 37.8469 12.4395 37.9219 12.0926C39.075 6.50508 38.3156 2.01445 35.7562 0.533203C33.2906 -0.882422 29.2687 0.589453 25.2 4.1332C24.7969 4.48008 24.4031 4.8457 24.0281 5.21133C23.775 4.96758 23.5125 4.72383 23.25 4.48945C18.9844 0.701953 14.7094 -0.891797 12.15 0.598828C9.69375 2.02383 8.9625 6.25195 9.99375 11.5395C10.0969 12.0645 10.2094 12.5801 10.3406 13.1051C9.74063 13.2738 9.15 13.4613 8.59687 13.6582C3.59062 15.3926 0 18.1301 0 20.9613C0 23.8863 3.825 26.8207 9.02813 28.602C9.45 28.7426 9.87188 28.8832 10.3031 29.0051C10.1625 29.5676 10.0406 30.1207 9.92813 30.6926C8.94375 35.8957 9.7125 40.0207 12.1688 41.4363C14.7 42.8988 18.9562 41.3988 23.1 37.7707C23.4281 37.4801 23.7562 37.1801 24.0844 36.8613C24.4969 37.2645 24.9281 37.6488 25.3594 38.0238C29.3719 41.4738 33.3375 42.8707 35.7844 41.4551C38.3156 39.9926 39.1406 35.5582 38.0719 30.1582C37.9875 29.7457 37.8938 29.3238 37.7906 28.8926C38.0906 28.8082 38.3813 28.7144 38.6719 28.6207C44.0813 26.8301 48 23.9332 48 20.9613C48 18.1207 44.3063 15.3645 39.2063 13.6113ZM26.5219 5.65195C30.0094 2.61445 33.2625 1.42383 34.7438 2.27695C36.3281 3.18633 36.9375 6.86133 35.9437 11.6895C35.8781 12.0082 35.8125 12.3176 35.7281 12.627C33.6469 12.1582 31.5375 11.8207 29.4187 11.6332C28.2 9.88945 26.8688 8.2207 25.425 6.65508C25.7906 6.3082 26.1469 5.98008 26.5219 5.65195ZM15.675 25.8269C16.1531 26.6426 16.6406 27.4582 17.1562 28.2551C15.6937 28.0957 14.2406 27.8613 12.8063 27.5519C13.2188 26.2019 13.7344 24.8051 14.3344 23.3801C14.7656 24.2051 15.2062 25.0207 15.675 25.8269ZM12.8344 14.5488C14.1844 14.2488 15.6188 14.0051 17.1094 13.8176C16.6125 14.5957 16.125 15.3926 15.6656 16.1988C15.2063 16.9957 14.7562 17.8113 14.3344 18.6363C13.7437 17.2395 13.2469 15.8707 12.8344 14.5488ZM15.4031 21.0082C16.0219 19.7145 16.6969 18.4488 17.4094 17.202C18.1219 15.9551 18.8906 14.7457 19.6969 13.5551C21.1031 13.452 22.5375 13.3957 24 13.3957C25.4625 13.3957 26.9062 13.452 28.3031 13.5551C29.1 14.7363 29.8594 15.9457 30.5813 17.1832C31.3031 18.4207 31.9781 19.6863 32.6156 20.9707C31.9875 22.2644 31.3125 23.5395 30.5906 24.7957C29.8781 26.0426 29.1188 27.2519 28.3219 28.4519C26.925 28.5551 25.4719 28.602 24 28.602C22.5281 28.602 21.1031 28.5551 19.725 28.4707C18.9094 27.2801 18.1406 26.0613 17.4188 24.8145C16.6969 23.5676 16.0313 22.302 15.4031 21.0082ZM32.3344 25.8082C32.8125 24.9832 33.2625 24.1488 33.7031 23.3051C34.3031 24.6645 34.8281 26.0426 35.2875 27.4582C33.8344 27.7863 32.3625 28.0394 30.8812 28.2082C31.3875 27.4207 31.8656 26.6144 32.3344 25.8082ZM33.6844 18.6363C33.2437 17.8113 32.7937 16.9863 32.325 16.1801C31.8656 15.3832 31.3875 14.5957 30.8906 13.8176C32.4 14.0051 33.8437 14.2582 35.1937 14.5676C34.7625 15.9551 34.2562 17.3051 33.6844 18.6363ZM24.0188 8.08945C25.0031 9.1582 25.9312 10.2832 26.7937 11.4457C24.9375 11.3613 23.0719 11.3613 21.2156 11.4457C22.1344 10.2363 23.0813 9.11133 24.0188 8.08945ZM13.1437 2.34258C14.7187 1.42383 18.2156 2.73633 21.9 5.99883C22.1344 6.20508 22.3687 6.43008 22.6125 6.65508C21.1594 8.2207 19.8188 9.88945 18.5906 11.6332C16.4719 11.8207 14.3719 12.1488 12.2906 12.6082C12.1688 12.1301 12.0656 11.6426 11.9625 11.1551C11.0812 6.61758 11.6625 3.1957 13.1437 2.34258ZM10.8469 27.0551C10.4531 26.9426 10.0688 26.8207 9.68438 26.6895C7.6875 26.0613 5.41875 25.0676 3.77812 23.7645C2.83125 23.1082 2.19375 22.0957 2.01562 20.9613C2.01562 19.2457 4.97812 17.052 9.25312 15.5613C9.7875 15.3738 10.3312 15.2051 10.875 15.0457C11.5125 17.0801 12.2812 19.077 13.1719 21.0082C12.2719 22.9676 11.4937 24.9926 10.8469 27.0551ZM21.7781 36.2426C20.2313 37.6582 18.4406 38.7832 16.4906 39.5519C15.45 40.0488 14.25 40.0957 13.1813 39.6738C11.6906 38.8113 11.0719 35.502 11.9156 31.0488C12.0187 30.5238 12.1313 29.9988 12.2625 29.4832C14.3625 29.9332 16.4812 30.2426 18.6281 30.4019C19.8656 32.1551 21.225 33.8332 22.6781 35.4082C22.3781 35.6988 22.0781 35.9801 21.7781 36.2426ZM24.075 33.9644C23.1187 32.9332 22.1625 31.7894 21.2344 30.5613C22.1344 30.5988 23.0625 30.6176 24 30.6176C24.9656 30.6176 25.9125 30.5988 26.85 30.5519C25.9875 31.7426 25.0594 32.8769 24.075 33.9644ZM36.3281 36.7769C36.2438 37.9207 35.6813 38.9894 34.7812 39.7113C33.2906 40.5738 30.1125 39.4488 26.6813 36.5051C26.2875 36.1676 25.8937 35.8019 25.4906 35.4269C26.925 33.8426 28.2469 32.1644 29.4469 30.4019C31.5938 30.2238 33.7312 29.8957 35.8406 29.4176C35.9344 29.8019 36.0187 30.1863 36.0938 30.5613C36.5531 32.5863 36.6281 34.6957 36.3281 36.7769ZM38.0344 26.6988C37.7719 26.7832 37.5094 26.8676 37.2375 26.9426C36.5813 24.8988 35.775 22.902 34.8469 20.9613C35.7469 19.0488 36.5063 17.0801 37.1438 15.0645C37.6313 15.2051 38.1 15.3551 38.55 15.5051C42.9188 17.0051 45.9844 19.2363 45.9844 20.9426C45.9844 22.7801 42.7125 25.1519 38.0344 26.6988ZM24 25.2926C26.3719 25.2926 28.2937 23.3707 28.2937 20.9988C28.2937 18.627 26.3719 16.7051 24 16.7051C21.6281 16.7051 19.7062 18.627 19.7062 20.9988C19.7062 23.3707 21.6281 25.2926 24 25.2926Z" fill="white"/>
</svg>
