<svg width="44" height="33" viewBox="0 0 44 33" fill="none" xmlns="http://www.w3.org/2000/svg">
<path d="M20.7515 24.9507C20.7309 24.992 20.7102 25.025 20.7515 24.9507ZM37.8794 18.9694C36.4966 18.969 35.1323 19.2865 33.8918 19.8976C33.4862 19.0794 33.0668 18.3644 32.9981 17.8282C32.9156 17.2025 32.8262 16.8313 32.9224 16.0888C33.0187 15.3463 33.4518 14.2944 33.445 14.2187C33.4381 14.1431 33.3487 13.765 32.4618 13.7581C31.5749 13.7512 30.8118 13.93 30.7231 14.1637C30.5665 14.5909 30.4446 15.0301 30.3587 15.4769C30.2006 16.2813 28.5856 19.1551 27.6713 20.6538C27.3688 20.0694 27.1144 19.5538 27.0594 19.1413C26.9769 18.5157 26.8875 18.1444 26.9838 17.4019C27.08 16.6594 27.5131 15.6075 27.5063 15.5319C27.4994 15.4563 27.41 15.0781 26.5238 15.0713C25.6376 15.0644 24.8738 15.2431 24.7844 15.4769C24.695 15.7106 24.5988 16.2606 24.42 16.79C24.2413 17.3194 22.0901 22.1045 21.527 23.3489C21.2383 23.9814 20.9907 24.4901 20.812 24.8339C20.7845 24.8889 20.7639 24.9232 20.7501 24.9507C20.7707 24.9164 20.7845 24.882 20.7845 24.8957C20.6332 25.1914 20.5439 25.3564 20.5439 25.3564V25.3633C20.427 25.5833 20.2964 25.7826 20.2345 25.7826C20.1932 25.7826 20.1039 25.2051 20.2551 24.4145C20.5782 22.7507 21.3414 20.1657 21.3345 20.0763C21.3276 20.0282 21.4789 19.5813 20.8326 19.3407C20.207 19.1138 19.9801 19.4919 19.9251 19.4919C19.8701 19.4919 19.8289 19.6294 19.8289 19.6294C19.8289 19.6294 20.5232 16.7144 18.4958 16.7144C17.2308 16.7144 15.4707 18.1032 14.6059 19.3613C14.0627 19.6569 12.8871 20.2963 11.6496 20.977C11.1752 21.2382 10.6871 21.5063 10.2264 21.7607C10.1921 21.7263 10.1646 21.692 10.1302 21.6576C7.66959 19.0313 3.12654 17.175 3.31904 13.6481C3.38779 12.3625 3.83467 8.98681 12.0552 4.88927C18.7928 1.53423 24.1794 2.45549 25.1069 4.50426C26.4406 7.42617 22.2269 12.8644 15.2301 13.6481C12.5633 13.9437 11.1614 12.9125 10.8108 12.5275C10.4464 12.1218 10.3914 12.1012 10.2539 12.1768C10.0271 12.3006 10.1714 12.6581 10.2539 12.8712C10.4602 13.4144 11.3196 14.3769 12.7833 14.8581C14.0689 15.2775 17.1957 15.5113 20.9763 14.0469C25.2237 12.4106 28.53 7.85242 27.5606 4.03676C26.5733 0.15921 20.1437 -1.11268 14.0641 1.0461C10.4416 2.33174 6.52421 4.35301 3.70611 6.98616C0.358634 10.1212 -0.176935 12.8506 0.043068 13.9919C0.82614 18.0413 6.40733 20.6813 8.64104 22.6338C8.53104 22.6957 8.42792 22.7507 8.33166 22.8057C7.21171 23.3626 2.95673 25.5901 1.89178 27.9414C0.688638 30.6089 2.09115 32.5202 3.01173 32.7815C5.88482 33.579 8.82667 32.1421 10.4073 29.7839C11.9878 27.4258 11.796 24.3457 11.0673 22.9432C11.0604 22.9226 11.0466 22.9089 11.0398 22.8882C11.3285 22.7163 11.6241 22.5445 11.9198 22.3726C12.4897 22.0357 13.0466 21.7263 13.5347 21.4582C13.2597 22.2007 13.0603 23.0945 12.9572 24.387C12.8335 25.8995 13.4591 27.8589 14.2704 28.6289C14.6279 28.9658 15.0603 28.9727 15.3284 28.9727C16.2772 28.9727 16.7034 28.1889 17.1771 27.2539C17.7615 26.1126 18.2772 24.7857 18.2772 24.7857C18.2772 24.7857 17.6309 28.3745 19.3978 28.3745C20.0434 28.3745 20.6896 27.5427 20.9791 27.1164V27.1233C20.9791 27.1233 20.9928 27.0958 21.0272 27.0408C21.0959 26.9376 21.1303 26.8758 21.1303 26.8758V26.8551C21.3916 26.4083 21.9622 25.3839 22.8209 23.6926C23.9347 21.5063 24.9996 18.7769 24.9996 18.7769C25.1025 19.3769 25.2449 19.9695 25.4259 20.5507C25.6184 21.2038 26.024 21.9188 26.3471 22.6132C26.0859 22.9707 25.9277 23.177 25.9277 23.177C25.9282 23.1823 25.9307 23.1872 25.9346 23.1907C25.7284 23.4657 25.4946 23.7614 25.254 24.0501C24.3747 25.0951 23.329 26.2914 23.1915 26.6351C23.0265 27.0408 23.0677 27.3433 23.384 27.577C23.6177 27.7558 24.0302 27.7833 24.4627 27.7489C25.2533 27.6939 25.8102 27.5014 26.0783 27.3777C26.5726 27.2004 27.0398 26.9551 27.4664 26.6489C28.3258 26.0164 28.8483 25.1089 28.8002 23.9126C28.7727 23.2526 28.5595 22.5926 28.2983 21.9738C28.3739 21.8638 28.4564 21.747 28.532 21.6301C29.8926 19.6432 30.9445 17.4624 30.9445 17.4624C31.0474 18.0624 31.1898 18.6549 31.3707 19.2362C31.5357 19.7931 31.8582 20.4049 32.1538 21.0031C30.8757 22.0412 30.0851 23.2444 29.8101 24.035C29.3013 25.4994 29.7001 26.1594 30.4495 26.3106C30.7864 26.3794 31.2676 26.2213 31.6251 26.07C32.1561 25.8932 32.6567 25.6358 33.1095 25.3069C33.9688 24.6744 34.8 23.7875 34.745 22.5843C34.7244 22.0412 34.5732 21.4981 34.3738 20.9756C35.4532 20.5218 36.855 20.2743 38.6425 20.4806C42.4706 20.9275 43.2199 23.32 43.0756 24.3169C42.9312 25.3138 42.1268 25.8706 41.8587 26.0356C41.5906 26.2006 41.5081 26.2625 41.5287 26.3863C41.5631 26.565 41.6868 26.5581 41.9137 26.5169C42.2299 26.4619 43.9205 25.7056 43.9961 23.8562C44.1061 21.5187 41.8587 18.9474 37.8773 18.9681L37.8794 18.9694ZM8.37291 28.9177C7.10859 30.2996 5.33482 30.8221 4.57237 30.3821C3.75424 29.9063 4.07736 27.8727 5.63732 26.4C6.58608 25.5063 7.80916 24.6812 8.62042 24.1725C8.80604 24.0625 9.07417 23.8975 9.40418 23.6981C9.45918 23.6637 9.48668 23.65 9.48668 23.65C9.54855 23.6087 9.6173 23.5744 9.68605 23.5331C10.256 25.6231 9.70668 27.4657 8.37291 28.9163V28.9177ZM17.6103 22.6338C17.1703 23.7132 16.2428 26.4633 15.6791 26.3189C15.1978 26.1951 14.9022 24.0982 15.5828 22.0357C15.9266 20.9976 16.6553 19.7601 17.0885 19.2788C17.7821 18.5019 18.5453 18.2544 18.724 18.5638C18.9647 18.9694 17.8853 21.9601 17.6103 22.6338ZM25.2416 26.2776C25.056 26.3739 24.8841 26.4358 24.8016 26.3876C24.7397 26.3533 24.8772 26.2226 24.8772 26.2226C24.8772 26.2226 25.8329 25.1983 26.211 24.7307C26.431 24.4557 26.6854 24.1326 26.9597 23.7751C26.9597 23.8095 26.9666 23.8439 26.9666 23.8851C26.9576 25.1158 25.7758 25.9476 25.2395 26.2776H25.2416ZM31.1253 24.937C30.9878 24.8407 31.0084 24.5176 31.4691 23.5139C31.6478 23.122 32.0596 22.462 32.7753 21.8295C32.8563 22.0689 32.9004 22.3193 32.9059 22.572C32.8991 24.1189 31.7922 24.6964 31.126 24.937H31.1253Z" fill="white"/>
</svg>
