<svg width="78" height="78" viewBox="0 0 78 78" fill="none" xmlns="http://www.w3.org/2000/svg">
<path d="M6.10629 41.7634C12.9034 41.1171 20.4806 42.1868 26.4531 38.1308C32.6931 33.1388 35.3897 24.6926 35.6349 16.9148C35.7686 13.3491 35.1446 9.8057 35.0331 6.26227C35.6571 3.43199 39.4903 4.59084 39.0669 7.3097C40.4486 21.1046 42.6549 38.2646 58.8566 41.7411C60.8623 42.1423 66.9686 41.3177 69.9103 40.9834C71.0691 40.8497 73.0303 41.1394 72.9634 42.6326C72.9189 43.7023 71.6486 44.3708 70.1109 44.5937C68.5731 44.8166 64.8737 45.1508 62.0211 45.552C59.1686 45.9531 54.756 47.8474 51.3463 49.4966C44.5046 52.4383 40.1589 61.0628 40.3148 68.6177C40.1366 70.2 41.2731 72.6068 39.156 73.2308C36.2811 73.9217 36.5263 70.4674 35.9246 68.64C35.256 66.2108 34.5651 63.804 33.8074 61.4194C31.8909 53.7754 25.6731 48.0034 18.1183 46.0423C13.2154 44.7497 7.97829 45.3291 6.59657 45.1063C4.836 44.9057 4.43485 42.3874 6.10629 41.7634ZM37.6851 60.9737C39.4903 55.2908 43.9474 49.0286 49.1846 46.5103C50.9674 45.5743 52.8394 44.8166 54.7337 44.0811C45.6857 41.0948 40.6046 34.6766 38.3091 25.8514C36.1697 33.7851 31.0663 41.8748 22.5977 43.8137C30.0857 46.7777 35.724 53.1737 37.6851 60.9737Z" fill="white"/>
</svg>
