<svg width="39" height="38" viewBox="0 0 39 38" fill="none" xmlns="http://www.w3.org/2000/svg">
<path d="M1.00556 20.5436C4.80832 20.1861 9.04746 20.7778 12.3889 18.5342C15.8799 15.7728 17.3886 11.1006 17.5257 6.79826C17.6005 4.82583 17.2514 2.86574 17.1891 0.905644C17.5382 -0.659966 19.6827 -0.0189289 19.4458 1.48504C20.2188 9.11585 21.4532 18.6081 30.5174 20.5312C31.6396 20.7531 35.0558 20.297 36.7016 20.1121C37.3499 20.0381 38.4471 20.1984 38.4097 21.0244C38.3848 21.6161 37.6741 21.9859 36.8138 22.1092C35.9535 22.2325 33.8838 22.4174 32.2879 22.6393C30.692 22.8612 28.2233 23.909 26.3157 24.8213C22.488 26.4485 20.0567 31.2193 20.144 35.3984C20.0443 36.2736 20.6801 37.605 19.4957 37.9502C17.8873 38.3324 18.0245 36.4216 17.6878 35.4107C17.3138 34.067 16.9273 32.7356 16.5033 31.4166C15.4311 27.1882 11.9525 23.9953 7.72584 22.9105C4.98287 22.1955 2.05288 22.516 1.27986 22.3927C0.294886 22.2818 0.0704596 20.8887 1.00556 20.5436ZM18.6728 31.17C19.6827 28.0265 22.1763 24.5624 25.1063 23.1694C26.1037 22.6516 27.1511 22.2325 28.2108 21.8256C23.1488 20.1737 20.3061 16.6234 19.0219 11.7416C17.825 16.1303 14.9698 20.6052 10.2319 21.6777C14.4212 23.3173 17.5756 26.8553 18.6728 31.17Z" fill="white"/>
</svg>
