<svg width="54" height="57" viewBox="0 0 54 57" fill="none" xmlns="http://www.w3.org/2000/svg">
<path d="M4.22754 30.5194C8.93325 30.0471 14.179 30.8288 18.3138 27.8648C22.6338 24.2168 24.5007 18.0446 24.6704 12.3608C24.763 9.75513 24.331 7.1657 24.2538 4.57627C24.6858 2.50799 27.3395 3.35485 27.0464 5.3417C28.003 15.4226 29.5304 27.9626 40.747 30.5031C42.1355 30.7963 46.363 30.1937 48.3995 29.9494C49.2018 29.8517 50.5595 30.0634 50.5133 31.1546C50.4824 31.9363 49.603 32.4248 48.5384 32.5877C47.4738 32.7506 44.9127 32.9948 42.9378 33.288C40.963 33.5811 37.9081 34.9654 35.5475 36.1706C30.811 38.3203 27.8024 44.6228 27.9104 50.1437C27.787 51.3 28.5738 53.0588 27.1081 53.5148C25.1178 54.0197 25.2875 51.4954 24.871 50.16C24.4081 48.3848 23.9298 46.626 23.4053 44.8834C22.0784 39.2974 17.7738 35.0794 12.5435 33.6463C9.14925 32.7017 5.52354 33.1251 4.56697 32.9623C3.34811 32.8157 3.07039 30.9754 4.22754 30.5194ZM26.0898 44.5577C27.3395 40.4048 30.4253 35.8286 34.051 33.9883C35.2853 33.3043 36.5813 32.7506 37.8927 32.2131C31.6287 30.0308 28.111 25.3406 26.5218 18.8914C25.0407 24.6891 21.5075 30.6008 15.6447 32.0177C20.8287 34.1837 24.7321 38.8577 26.0898 44.5577Z" fill="white"/>
</svg>
