<svg width="42" height="42" viewBox="0 0 42 42" fill="none" xmlns="http://www.w3.org/2000/svg">
<path d="M21 0C9.4246 0 0 9.41613 0 21C0 32.5754 9.4246 42 21 42C32.5754 42 42 32.5754 42 21C42 9.41613 32.5754 0 21 0ZM2.11694 21C2.11694 18.2649 2.70121 15.6653 3.75121 13.3198L12.7609 37.9948C6.46089 34.9294 2.11694 28.4685 2.11694 21ZM21 39.8831C19.1456 39.8831 17.3589 39.6121 15.6653 39.1125L21.3302 22.6512L27.1306 38.5536C27.173 38.6468 27.2153 38.7315 27.2661 38.8161C25.3101 39.502 23.2016 39.8831 21 39.8831ZM23.5996 12.1512C24.7343 12.0919 25.7589 11.9734 25.7589 11.9734C26.775 11.8548 26.6565 10.356 25.6403 10.4153C25.6403 10.4153 22.5835 10.6524 20.6105 10.6524C18.756 10.6524 15.6399 10.4153 15.6399 10.4153C14.6238 10.356 14.5052 11.9141 15.5214 11.9734C15.5214 11.9734 16.4867 12.0919 17.5028 12.1512L20.4411 20.2125L16.3089 32.6008L9.43306 12.1512C10.5677 12.0919 11.5923 11.9734 11.5923 11.9734C12.6085 11.8548 12.4899 10.356 11.4738 10.4153C11.4738 10.4153 8.41694 10.6524 6.44395 10.6524C6.08831 10.6524 5.67339 10.644 5.2246 10.627C8.60323 5.50403 14.4036 2.11694 21 2.11694C25.9113 2.11694 30.3907 3.99677 33.7524 7.07056C33.6677 7.0621 33.5915 7.05363 33.5069 7.05363C31.6524 7.05363 30.3399 8.67097 30.3399 10.4069C30.3399 11.9649 31.2375 13.2774 32.1944 14.8355C32.9141 16.0887 33.7524 17.706 33.7524 20.0431C33.7524 21.6605 33.1343 23.5319 32.3129 26.1484L30.4331 32.4399L23.5996 12.1512ZM30.4923 37.3173L36.2589 20.6444C37.3343 17.9516 37.6984 15.8008 37.6984 13.8786C37.6984 13.1843 37.656 12.5407 37.5714 11.9395C39.0448 14.6323 39.8831 17.7145 39.8831 21C39.8831 27.969 36.1065 34.0488 30.4923 37.3173Z" fill="white"/>
</svg>
